<?xml version="1.0" encoding="utf-8"?>
<!-- Generator: Adobe Illustrator 24.1.0, SVG Export Plug-In . SVG Version: 6.00 Build 0)  -->
<svg version="1.1" id="Capa_1" xmlns="http://www.w3.org/2000/svg" xmlns:xlink="http://www.w3.org/1999/xlink" x="0px" y="0px"
	 viewBox="0 0 293 174" style="enable-background:new 0 0 293 174;" xml:space="preserve">
<style type="text/css">
	.st0{fill:#181618;}
	.st1{clip-path:url(#SVGID_2_);fill:#181618;}
	.st2{clip-path:url(#SVGID_5_);}
</style>
<g>
	<path class="st0" d="M41.6,122.86v-7.17h-4.48c-0.36,0.02-0.71,0.03-1.07,0.03c-10.26,0-18.58-8.32-18.58-18.58
		c0-10.26,8.32-18.58,18.58-18.58c0.36,0,0.72,0.01,1.07,0.03h4.59v-4.31v-1.77v-0.78h-6.55v0.01C21.18,71.89,9.89,83.27,9.89,97.28
		c0,14.1,11.43,25.53,25.53,25.54v0.04H41.6L41.6,122.86z"/>
	<polygon class="st0" points="41.71,99.89 16.38,99.89 16.38,93.11 41.71,93.11 41.71,99.89 	"/>
	<path class="st0" d="M64.91,87.45L64.91,87.45c-9.74,0.01-17.63,7.9-17.63,17.64c0,9.74,7.9,17.63,17.64,17.63
		c0.51,0,1.02-0.02,1.52-0.07h4.15v-0.86v-2.47v-2.79H65.9c-6.24,0-11.3-5.06-11.3-11.29c0-6.24,5.06-11.3,11.3-11.3
		c0.02,0,0.04,0,0.06,0v0h4.63v-3.97v-1.58v-0.94H64.91L64.91,87.45z"/>
	<path class="st0" d="M92.5,116.32c-6.16,0-11.15-4.99-11.15-11.15c0-6.16,4.99-11.15,11.15-11.15c6.16,0,11.15,4.99,11.15,11.15
		C103.65,111.33,98.66,116.32,92.5,116.32L92.5,116.32z M92.5,86.86c-10.11,0-18.31,8.2-18.31,18.31c0,10.11,8.2,18.32,18.31,18.32
		c10.11,0,18.31-8.2,18.31-18.32C110.81,95.06,102.61,86.86,92.5,86.86L92.5,86.86z"/>
	<polygon class="st0" points="125.81,122.41 118.56,122.41 118.56,87.45 125.81,87.45 125.81,122.41 	"/>
	<path class="st0" d="M165.49,102.55c0.05-2.04-1.37-15.79-15.53-15.79c-14.16,0-14.91,14.73-14.91,14.73v21.23h7.23v-20.97
		c-0.01-0.15-0.02-0.29-0.02-0.44c0-0.15,0.01-0.29,0.02-0.44v-0.14h0.01c0.3-4.15,3.75-7.42,7.98-7.42c4.22,0,7.68,3.27,7.97,7.42
		h0.03v0.48c0,0.04,0.01,0.07,0.01,0.11c0,0.04-0.01,0.07-0.01,0.11v21.3h7.21C165.49,122.72,165.45,104.58,165.49,102.55
		L165.49,102.55z"/>
	<path class="st0" d="M205.23,121.79v-19.94c0,0,0,0-0.09-0.36c-0.06-0.31-0.32-1.13-0.56-1.85v-0.03
		c-0.13-0.42-0.27-0.83-0.43-1.24c-2.65-6.77-9.24-11.56-16.95-11.56c-10.05,0-18.19,8.15-18.19,18.19c0,10.05,8.15,18.2,18.19,18.2
		c3.31,0,6.4-0.89,9.08-2.44v-9.45c-2.05,3.06-5.53,5.09-9.49,5.09c-6.29,0-11.39-5.1-11.39-11.39c0-6.29,5.1-11.39,11.39-11.39
		c6.29,0,11.39,5.1,11.39,11.39v7.59v6.92v2.72c0,0-0.09,14.36-21.46,7.86l-2.04,6.95c0,0,10.09,3.8,18.84,0.79
		c1.69-0.58,3.14-1.32,4.39-2.2v0C206.08,130.85,205.23,121.79,205.23,121.79L205.23,121.79z"/>
	<g>
		<defs>
			<rect id="SVGID_1_" x="9.89" y="14.57" width="271.13" height="150.24"/>
		</defs>
		<clipPath id="SVGID_2_">
			<use xlink:href="#SVGID_1_"  style="overflow:visible;"/>
		</clipPath>
		<path class="st1" d="M239.38,106.97c-0.88,5.28-5.46,9.31-10.98,9.31c-6.16,0-11.15-4.99-11.15-11.15
			c0-6.15,4.99-11.15,11.15-11.15c2.42,0,4.66,0.78,6.49,2.09l-16.58,10.18l3.51,5.37l19.26-11.03l4.34-2.33
			c-2.75-6.65-9.37-11.45-17.02-11.45c-10.12,0-18.32,8.2-18.32,18.31c0,10.12,8.2,18.32,18.32,18.32c9.54,0,17.37-7.29,18.23-16.61
			L239.38,106.97L239.38,106.97z"/>
		<path class="st1" d="M281.02,102.12c0.04-2.03-1.37-15.79-15.53-15.79c-14.15,0-14.91,14.73-14.91,14.73v21.24h7.23v-20.98
			c-0.01-0.15-0.02-0.29-0.02-0.44c0-0.15,0.01-0.29,0.02-0.44v-0.15h0.01c0.3-4.14,3.75-7.42,7.98-7.42c4.22,0,7.68,3.28,7.98,7.42
			h0.02v0.48c0,0.04,0.01,0.07,0.01,0.11c0,0.03-0.01,0.07-0.01,0.11v21.31h7.22C281.02,122.3,280.97,104.16,281.02,102.12
			L281.02,102.12z"/>
	</g>
	<g>
		<defs>
			<path id="SVGID_3_" d="M201.81,39.15c-0.03,0.29-0.05,0.59-0.05,0.88c0,0.08,0.01,0.15,0.01,0.23l-25.4,18.76
				c-1.9-2.3-4.64-3.87-7.74-4.27l6.32-27.28c1.72-0.52,3.14-1.73,3.95-3.3L201.81,39.15L201.81,39.15z M179.13,66.7
				c0-2.01-0.5-3.91-1.37-5.57l27.2-14.35c1.5,1.23,3.42,1.97,5.52,1.97c4.81,0,8.72-3.9,8.72-8.72c0-4.81-3.9-8.71-8.72-8.71
				c-1.85,0-3.57,0.58-4.98,1.57l-25.93-10.74c0.05-0.32,0.08-0.65,0.08-0.99c0-3.64-2.95-6.59-6.59-6.59
				c-2.79,0-5.17,1.74-6.14,4.19l-24.76,10.67c-1.77-4.68-6.28-8.01-11.58-8.01c-6.84,0-12.39,5.55-12.39,12.39
				c0,4.19,2.09,7.89,5.28,10.13l-1.22,29.71c-2.32,0.08-4.27,1.61-4.98,3.71l-15.3-13.56c0.05-0.39,0.08-0.78,0.08-1.19
				c0-5.5-4.46-9.95-9.95-9.95c-5.5,0-9.95,4.46-9.95,9.95c0,5.5,4.45,9.95,9.95,9.95c3.37,0,6.35-1.68,8.15-4.25L117,79.3
				c0.11,2.92,2.5,5.26,5.45,5.26c3.02,0,5.46-2.45,5.46-5.46c0-2.57-1.77-4.72-4.17-5.3l6.52-27.63c0.11,0,0.21,0.02,0.32,0.02
				c6.84,0,12.39-5.55,12.39-12.39c0-0.72-0.07-1.43-0.19-2.11l25.66-5.82c0.05,0.05,0.1,0.1,0.15,0.14l-2.03,28.66
				c-6.43,0.27-11.56,5.55-11.56,12.04c0,6.66,5.4,12.06,12.06,12.06C173.73,78.77,179.13,73.36,179.13,66.7L179.13,66.7z"/>
		</defs>
		<linearGradient id="SVGID_4_" gradientUnits="userSpaceOnUse" x1="82.148" y1="49.5673" x2="219.1961" y2="49.5673">
			<stop  offset="0" style="stop-color:#D4460C"/>
			<stop  offset="0.3443" style="stop-color:#DC831D"/>
			<stop  offset="0.6624" style="stop-color:#DC831D"/>
			<stop  offset="1" style="stop-color:#E19E26"/>
		</linearGradient>
		<use xlink:href="#SVGID_3_"  style="overflow:visible;fill:url(#SVGID_4_);"/>
		<clipPath id="SVGID_5_">
			<use xlink:href="#SVGID_3_"  style="overflow:visible;"/>
		</clipPath>
		<g class="st2">
			<defs>
				<rect id="SVGID_6_" x="82.15" y="14.57" width="137.05" height="69.99"/>
			</defs>
			<linearGradient id="SVGID_7_" gradientUnits="userSpaceOnUse" x1="82.148" y1="49.5673" x2="219.1961" y2="49.5673">
				<stop  offset="0" style="stop-color:#D4460C"/>
				<stop  offset="0.3443" style="stop-color:#DC831D"/>
				<stop  offset="0.6624" style="stop-color:#DC831D"/>
				<stop  offset="1" style="stop-color:#E19E26"/>
			</linearGradient>
			<use xlink:href="#SVGID_6_"  style="overflow:visible;fill:url(#SVGID_7_);"/>
			<clipPath id="SVGID_8_">
				<use xlink:href="#SVGID_6_"  style="overflow:visible;"/>
			</clipPath>
		</g>
	</g>
	<polygon class="st0" points="14.3,158.45 12.32,158.45 12.32,140.68 14.3,140.68 14.3,158.45 	"/>
	<path class="st0" d="M28.48,158.45h-1.89v-6.57c0-1.07-0.19-1.85-0.57-2.35c-0.38-0.5-0.98-0.75-1.81-0.75
		c-0.94,0-1.66,0.37-2.16,1.11c-0.49,0.74-0.74,1.83-0.74,3.27v5.28h-1.87v-11h1.87v1.62c0.33-0.65,0.79-1.14,1.38-1.47
		c0.59-0.33,1.31-0.49,2.16-0.49c1.13,0,2.01,0.37,2.66,1.12c0.65,0.74,0.97,1.79,0.97,3.13V158.45L28.48,158.45z"/>
	<path class="st0" d="M41.71,152.82c0-1.21-0.33-2.16-1-2.86c-0.66-0.7-1.55-1.05-2.65-1.05c-1.1,0-1.99,0.37-2.68,1.09
		c-0.69,0.73-1.03,1.69-1.03,2.89c0,1.21,0.34,2.2,1.01,2.96c0.67,0.76,1.54,1.14,2.6,1.14c1.07,0,1.96-0.39,2.67-1.17
		C41.36,155.04,41.71,154.04,41.71,152.82L41.71,152.82z M43.6,159.04c0,1.96-0.45,3.41-1.35,4.36c-0.9,0.95-2.28,1.42-4.17,1.42
		c-1.48,0-2.66-0.32-3.54-0.96c-0.88-0.64-1.4-1.53-1.57-2.69h1.96c0.12,0.62,0.45,1.08,0.99,1.39c0.53,0.31,1.27,0.47,2.19,0.47
		c1.28,0,2.2-0.31,2.76-0.91c0.56-0.61,0.84-1.57,0.84-2.9v-2.58c-0.38,0.7-0.9,1.24-1.58,1.62c-0.68,0.37-1.48,0.56-2.4,0.56
		c-1.54,0-2.8-0.56-3.78-1.67c-0.99-1.11-1.49-2.54-1.49-4.27c0-1.7,0.5-3.08,1.49-4.15c0.99-1.07,2.27-1.61,3.83-1.61
		c0.88,0,1.66,0.17,2.34,0.52c0.67,0.35,1.21,0.84,1.6,1.48v-1.66h1.89V159.04L43.6,159.04z"/>
	<path class="st0" d="M56.55,151.9c-0.1-0.94-0.45-1.68-1.06-2.2c-0.61-0.53-1.39-0.79-2.36-0.79c-0.93,0-1.72,0.27-2.36,0.81
		c-0.64,0.54-1.02,1.27-1.14,2.18H56.55L56.55,151.9z M58.42,153.23h-8.84c0.07,1.19,0.42,2.11,1.05,2.77
		c0.63,0.65,1.48,0.98,2.54,0.98c0.81,0,1.49-0.16,2.05-0.48c0.56-0.32,1.01-0.8,1.34-1.43l1.58,0.83
		c-0.51,0.96-1.18,1.68-2.02,2.17c-0.84,0.48-1.83,0.73-2.98,0.73c-1.66,0-2.98-0.54-3.96-1.63c-0.98-1.08-1.48-2.51-1.48-4.29
		c0-1.65,0.52-3.03,1.57-4.13c1.04-1.1,2.33-1.64,3.85-1.64c1.56,0,2.84,0.5,3.82,1.51c0.98,1.01,1.47,2.32,1.47,3.96V153.23
		L58.42,153.23z"/>
	<path class="st0" d="M71.46,158.45h-1.89v-6.57c0-1.07-0.19-1.85-0.57-2.35c-0.38-0.5-0.99-0.75-1.81-0.75
		c-0.94,0-1.66,0.37-2.16,1.11c-0.5,0.74-0.74,1.83-0.74,3.27v5.28h-1.88v-11h1.88v1.62c0.33-0.65,0.79-1.14,1.38-1.47
		c0.59-0.33,1.31-0.49,2.16-0.49c1.13,0,2.01,0.37,2.66,1.12c0.64,0.74,0.97,1.79,0.97,3.13V158.45L71.46,158.45z"/>
	<path class="st0" d="M78.71,158.45h-1.89v-11h1.89V158.45L78.71,158.45z M79.07,143.11c0,0.35-0.13,0.65-0.39,0.91
		c-0.26,0.25-0.56,0.38-0.91,0.38c-0.35,0-0.66-0.13-0.91-0.38c-0.26-0.25-0.38-0.55-0.38-0.91c0-0.35,0.13-0.66,0.38-0.91
		c0.25-0.26,0.55-0.39,0.91-0.39c0.35,0,0.66,0.13,0.91,0.39C78.94,142.45,79.07,142.76,79.07,143.11L79.07,143.11z"/>
	<path class="st0" d="M91.79,151.9c-0.1-0.94-0.45-1.68-1.06-2.2c-0.61-0.53-1.39-0.79-2.36-0.79c-0.93,0-1.71,0.27-2.36,0.81
		c-0.64,0.54-1.03,1.27-1.14,2.18H91.79L91.79,151.9z M93.66,153.23h-8.84c0.07,1.19,0.42,2.11,1.05,2.77
		c0.64,0.65,1.48,0.98,2.54,0.98c0.8,0,1.49-0.16,2.05-0.48c0.57-0.32,1.01-0.8,1.34-1.43l1.58,0.83c-0.51,0.96-1.18,1.68-2.02,2.17
		c-0.84,0.48-1.83,0.73-2.97,0.73c-1.66,0-2.98-0.54-3.96-1.63c-0.99-1.08-1.48-2.51-1.48-4.29c0-1.65,0.52-3.03,1.56-4.13
		c1.04-1.1,2.33-1.64,3.85-1.64c1.57,0,2.84,0.5,3.82,1.51c0.98,1.01,1.47,2.32,1.47,3.96V153.23L93.66,153.23z"/>
	<path class="st0" d="M103.76,147.32l-0.45,1.87c-0.14-0.09-0.29-0.15-0.45-0.19c-0.16-0.04-0.33-0.06-0.52-0.06
		c-0.93,0-1.63,0.4-2.1,1.19c-0.47,0.8-0.71,1.98-0.71,3.56v4.76h-1.88v-11h1.88v1.93c0.26-0.79,0.66-1.37,1.16-1.73
		c0.5-0.36,1.18-0.54,2.02-0.54c0.2,0,0.39,0.02,0.58,0.06C103.49,147.21,103.64,147.26,103.76,147.32L103.76,147.32z"/>
	<path class="st0" d="M109.41,158.45h-1.89v-11h1.89V158.45L109.41,158.45z M111.09,143.04l-3.37,3.11l-0.7-0.76l3.08-3.47
		L111.09,143.04L111.09,143.04z"/>
	<path class="st0" d="M123.15,152.82c0-1.21-0.33-2.16-0.99-2.86c-0.66-0.7-1.55-1.05-2.65-1.05c-1.1,0-1.99,0.37-2.67,1.09
		c-0.69,0.73-1.03,1.69-1.03,2.89c0,1.21,0.34,2.2,1.01,2.96c0.68,0.76,1.54,1.14,2.6,1.14c1.07,0,1.97-0.39,2.68-1.17
		C122.79,155.04,123.15,154.04,123.15,152.82L123.15,152.82z M125.03,158.45h-1.88v-1.82c-0.38,0.7-0.9,1.24-1.58,1.62
		c-0.68,0.37-1.48,0.56-2.4,0.56c-1.53,0-2.8-0.56-3.79-1.67c-0.99-1.11-1.48-2.54-1.48-4.27c0-1.7,0.5-3.08,1.49-4.15
		c0.99-1.07,2.27-1.61,3.83-1.61c0.88,0,1.66,0.17,2.34,0.52c0.67,0.35,1.21,0.84,1.6,1.48v-1.66h1.88V158.45L125.03,158.45z"/>
	<path class="st0" d="M146.53,144.05c0-0.61-0.19-1.1-0.58-1.47c-0.39-0.37-0.89-0.56-1.52-0.56c-0.67,0-1.19,0.18-1.57,0.53
		c-0.39,0.35-0.58,0.84-0.58,1.45c0,0.34,0.1,0.71,0.3,1.11c0.19,0.4,0.51,0.88,0.96,1.44l0.61,0.77c0.88-0.59,1.5-1.12,1.85-1.61
		C146.36,145.23,146.53,144.67,146.53,144.05L146.53,144.05z M147.83,154.84l-4.18-5.28c-1.3,0.87-2.19,1.6-2.65,2.18
		c-0.47,0.58-0.7,1.28-0.7,2.09c0,0.93,0.32,1.69,0.95,2.3c0.63,0.6,1.43,0.9,2.4,0.9c0.68,0,1.37-0.18,2.07-0.55
		C146.42,156.11,147.13,155.57,147.83,154.84L147.83,154.84z M153.01,158.45h-2.28l-1.84-2.27c-0.89,0.88-1.77,1.53-2.66,1.97
		c-0.88,0.44-1.76,0.66-2.64,0.66c-1.57,0-2.84-0.47-3.81-1.39c-0.97-0.92-1.45-2.12-1.45-3.58c0-1.03,0.32-1.97,0.97-2.81
		c0.65-0.85,1.76-1.76,3.32-2.73l-0.63-0.82c-0.58-0.76-0.98-1.39-1.19-1.9c-0.21-0.51-0.32-1.03-0.32-1.59
		c0-1.06,0.37-1.94,1.09-2.63c0.73-0.69,1.69-1.03,2.89-1.03c1.14,0,2.07,0.35,2.8,1.04c0.73,0.7,1.09,1.56,1.09,2.62
		c0,0.88-0.25,1.67-0.74,2.4c-0.49,0.72-1.31,1.46-2.45,2.22l3.92,4.9c0.37-0.46,0.71-0.94,1.04-1.42c0.33-0.49,0.64-0.99,0.94-1.5
		l1.44,0.99c-0.33,0.56-0.69,1.11-1.08,1.67c-0.39,0.55-0.81,1.09-1.25,1.63L153.01,158.45L153.01,158.45z"/>
	<path class="st0" d="M177.1,149.56c0-2.29-0.65-4.03-1.96-5.22c-1.3-1.19-3.2-1.79-5.71-1.79h-1.67v14.04h1.46
		c2.71,0,4.7-0.57,5.97-1.71C176.46,153.73,177.1,151.96,177.1,149.56L177.1,149.56z M179.08,149.59c0,2.92-0.84,5.13-2.51,6.62
		c-1.67,1.49-4.14,2.24-7.4,2.24h-3.37v-17.76h3.49c3.16,0,5.58,0.77,7.27,2.32C178.23,144.54,179.08,146.74,179.08,149.59
		L179.08,149.59z"/>
	<path class="st0" d="M191.22,151.9c-0.1-0.94-0.45-1.68-1.06-2.2c-0.61-0.53-1.39-0.79-2.36-0.79c-0.93,0-1.71,0.27-2.36,0.81
		c-0.65,0.54-1.02,1.27-1.14,2.18H191.22L191.22,151.9z M193.09,153.23h-8.84c0.07,1.19,0.42,2.11,1.06,2.77
		c0.63,0.65,1.48,0.98,2.53,0.98c0.81,0,1.49-0.16,2.05-0.48c0.56-0.32,1.01-0.8,1.34-1.43l1.57,0.83
		c-0.51,0.96-1.18,1.68-2.02,2.17c-0.84,0.48-1.83,0.73-2.97,0.73c-1.66,0-2.97-0.54-3.96-1.63c-0.98-1.08-1.48-2.51-1.48-4.29
		c0-1.65,0.52-3.03,1.56-4.13c1.04-1.1,2.33-1.64,3.85-1.64c1.56,0,2.84,0.5,3.82,1.51c0.98,1.01,1.47,2.32,1.47,3.96V153.23
		L193.09,153.23z"/>
	<path class="st0" d="M203.73,155.48c0,1.01-0.37,1.82-1.11,2.42c-0.74,0.6-1.74,0.91-3.01,0.91c-0.96,0-1.77-0.2-2.43-0.58
		c-0.66-0.39-1.15-0.95-1.46-1.69l1.6-1.01c0.22,0.53,0.53,0.92,0.93,1.18c0.4,0.26,0.89,0.39,1.47,0.39c0.65,0,1.16-0.14,1.54-0.4
		c0.38-0.27,0.57-0.64,0.57-1.1c0-0.51-0.18-0.91-0.52-1.18c-0.35-0.27-1.03-0.58-2.04-0.94c-0.99-0.37-1.73-0.83-2.23-1.37
		c-0.49-0.55-0.74-1.19-0.74-1.93c0-0.95,0.32-1.7,0.95-2.24c0.63-0.54,1.52-0.81,2.65-0.81c0.83,0,1.52,0.16,2.07,0.5
		c0.55,0.34,0.99,0.86,1.32,1.57l-1.55,0.94c-0.2-0.46-0.45-0.8-0.76-1.02c-0.31-0.22-0.69-0.33-1.15-0.33
		c-0.53,0-0.94,0.12-1.24,0.36c-0.3,0.24-0.45,0.57-0.45,0.98c0,0.42,0.15,0.78,0.46,1.06c0.31,0.28,0.88,0.56,1.7,0.83
		c1.21,0.39,2.08,0.86,2.62,1.4C203.46,153.95,203.73,154.64,203.73,155.48L203.73,155.48z"/>
	<path class="st0" d="M216.12,152.82c0-1.21-0.33-2.16-0.99-2.86c-0.66-0.7-1.55-1.05-2.65-1.05c-1.1,0-1.99,0.37-2.67,1.09
		c-0.69,0.73-1.03,1.69-1.03,2.89c0,1.21,0.34,2.2,1.01,2.96c0.67,0.76,1.54,1.14,2.6,1.14c1.07,0,1.96-0.39,2.67-1.17
		C215.76,155.04,216.12,154.04,216.12,152.82L216.12,152.82z M218.01,158.45h-1.89v-1.82c-0.37,0.7-0.9,1.24-1.58,1.62
		c-0.68,0.37-1.48,0.56-2.4,0.56c-1.53,0-2.79-0.56-3.78-1.67c-0.99-1.11-1.49-2.54-1.49-4.27c0-1.7,0.5-3.08,1.49-4.15
		c0.99-1.07,2.27-1.61,3.83-1.61c0.88,0,1.66,0.17,2.34,0.52c0.68,0.35,1.21,0.84,1.6,1.48v-1.66h1.89V158.45L218.01,158.45z"/>
	<path class="st0" d="M229.14,147.32l-0.45,1.87c-0.14-0.09-0.29-0.15-0.45-0.19c-0.16-0.04-0.33-0.06-0.51-0.06
		c-0.93,0-1.63,0.4-2.1,1.19c-0.47,0.8-0.7,1.98-0.7,3.56v4.76h-1.88v-11h1.88v1.93c0.27-0.79,0.66-1.37,1.16-1.73
		c0.51-0.36,1.18-0.54,2.03-0.54c0.2,0,0.39,0.02,0.58,0.06C228.87,147.21,229.02,147.26,229.14,147.32L229.14,147.32z"/>
	<path class="st0" d="M238.29,147.32l-0.45,1.87c-0.14-0.09-0.29-0.15-0.45-0.19c-0.16-0.04-0.33-0.06-0.52-0.06
		c-0.93,0-1.63,0.4-2.1,1.19c-0.47,0.8-0.71,1.98-0.71,3.56v4.76h-1.88v-11h1.88v1.93c0.27-0.79,0.66-1.37,1.16-1.73
		c0.51-0.36,1.18-0.54,2.02-0.54c0.2,0,0.4,0.02,0.58,0.06C238.02,147.21,238.17,147.26,238.29,147.32L238.29,147.32z"/>
	<path class="st0" d="M249.82,152.91c0-1.16-0.39-2.11-1.15-2.87c-0.77-0.76-1.72-1.13-2.84-1.13c-1.14,0-2.08,0.38-2.84,1.13
		c-0.76,0.76-1.14,1.71-1.14,2.87c0,1.17,0.39,2.14,1.15,2.92c0.77,0.78,1.71,1.17,2.83,1.17c1.13,0,2.08-0.39,2.85-1.17
		C249.44,155.05,249.82,154.08,249.82,152.91L249.82,152.91z M251.69,152.91c0,1.63-0.57,3.03-1.72,4.17
		c-1.14,1.15-2.54,1.72-4.18,1.72c-1.63,0-3-0.57-4.14-1.72c-1.13-1.14-1.7-2.54-1.7-4.18c0-1.64,0.56-3.02,1.68-4.13
		c1.12-1.11,2.5-1.67,4.15-1.67c1.67,0,3.06,0.56,4.19,1.67C251.13,149.91,251.69,151.28,251.69,152.91L251.69,152.91z"/>
	<polygon class="st0" points="257.56,158.45 255.69,158.45 255.69,139 257.56,139 257.56,158.45 	"/>
	<polygon class="st0" points="264.49,158.45 262.62,158.45 262.62,139 264.49,139 264.49,158.45 	"/>
	<path class="st0" d="M278.4,152.91c0-1.16-0.38-2.11-1.15-2.87c-0.77-0.76-1.71-1.13-2.84-1.13c-1.14,0-2.08,0.38-2.84,1.13
		c-0.76,0.76-1.14,1.71-1.14,2.87c0,1.17,0.39,2.14,1.16,2.92c0.77,0.78,1.71,1.17,2.83,1.17c1.13,0,2.08-0.39,2.85-1.17
		C278.02,155.05,278.4,154.08,278.4,152.91L278.4,152.91z M280.28,152.91c0,1.63-0.57,3.03-1.72,4.17
		c-1.14,1.15-2.53,1.72-4.17,1.72c-1.63,0-3-0.57-4.14-1.72c-1.13-1.14-1.7-2.54-1.7-4.18c0-1.64,0.56-3.02,1.68-4.13
		c1.12-1.11,2.5-1.67,4.15-1.67c1.66,0,3.06,0.56,4.19,1.67C279.72,149.91,280.28,151.28,280.28,152.91L280.28,152.91z"/>
</g>
</svg>
